<svg width="20" height="24" viewBox="0 0 20 24" fill="none" xmlns="http://www.w3.org/2000/svg">
<path d="M20 21.1874C20 21.436 19.9024 21.6745 19.7288 21.8503C19.5551 22.0262 19.3196 22.1249 19.074 22.1249H18.148V23.0625C18.148 23.3111 18.0504 23.5496 17.8768 23.7254C17.7031 23.9012 17.4676 24 17.222 24C16.9764 24 16.7409 23.9012 16.5672 23.7254C16.3935 23.5496 16.296 23.3111 16.296 23.0625V22.1249H15.37C15.1244 22.1249 14.8888 22.0262 14.7152 21.8503C14.5415 21.6745 14.444 21.436 14.444 21.1874C14.444 20.9388 14.5415 20.7003 14.7152 20.5245C14.8888 20.3486 15.1244 20.2499 15.37 20.2499H16.296V19.3131C16.296 19.0645 16.3935 18.826 16.5672 18.6502C16.7409 18.4744 16.9764 18.3756 17.222 18.3756C17.4676 18.3756 17.7031 18.4744 17.8768 18.6502C18.0504 18.826 18.148 19.0645 18.148 19.3131V20.2507H19.074C19.3194 20.2507 19.5549 20.3493 19.7285 20.525C19.9021 20.7006 19.9998 20.9389 20 21.1874ZM20 6.56364V15.563C20 15.8116 19.9024 16.0501 19.7288 16.2259C19.5551 16.4018 19.3196 16.5005 19.074 16.5005C18.8284 16.5005 18.5929 16.4018 18.4192 16.2259C18.2455 16.0501 18.148 15.8116 18.148 15.563V7.50117H16.296V10.3138C16.296 10.5624 16.1984 10.8009 16.0248 10.9767C15.8511 11.1525 15.6156 11.2513 15.37 11.2513C15.1244 11.2513 14.8888 11.1525 14.7152 10.9767C14.5415 10.8009 14.444 10.5624 14.444 10.3138V7.50117H5.55525V10.3138C5.55525 10.5624 5.45769 10.8009 5.28403 10.9767C5.11037 11.1525 4.87483 11.2513 4.62924 11.2513C4.38365 11.2513 4.14811 11.1525 3.97445 10.9767C3.8008 10.8009 3.70324 10.5624 3.70324 10.3138V7.50117H1.85201V22.1249H11.6667C11.9123 22.1249 12.1479 22.2237 12.3215 22.3995C12.4952 22.5754 12.5927 22.8138 12.5927 23.0625C12.5927 23.3111 12.4952 23.5496 12.3215 23.7254C12.1479 23.9012 11.9123 24 11.6667 24H0.926007C0.680415 24 0.44488 23.9012 0.27122 23.7254C0.0975599 23.5496 0 23.3111 0 23.0625V6.56124C0 6.31259 0.0975599 6.07412 0.27122 5.8983C0.44488 5.72248 0.680415 5.6237 0.926007 5.6237H3.74748C3.92909 4.07394 4.66589 2.64547 5.81828 1.60898C6.97066 0.572488 8.45856 0 10 0C11.5414 0 13.0293 0.572488 14.1817 1.60898C15.3341 2.64547 16.0709 4.07394 16.2525 5.6237H19.074C19.1956 5.6237 19.316 5.64795 19.4284 5.69507C19.5407 5.74219 19.6428 5.81124 19.7288 5.8983C19.8148 5.98536 19.883 6.08871 19.9295 6.20246C19.976 6.31621 20 6.43812 20 6.56124V6.56364ZM14.38 5.6261C14.2051 4.57744 13.669 3.62537 12.8668 2.93881C12.0645 2.25224 11.0481 1.87554 9.99763 1.87554C8.94719 1.87554 7.93071 2.25224 7.12849 2.93881C6.32627 3.62537 5.79017 4.57744 5.61529 5.6261H14.38Z" fill="#5C6AC4"/>
</svg>
